<svg width="800" height="400" xmlns="http://www.w3.org/2000/svg">
  <defs>
    <linearGradient id="grad1" x1="0%" y1="0%" x2="100%" y2="100%">
      <stop offset="0%" style="stop-color:#667eea;stop-opacity:1" />
      <stop offset="100%" style="stop-color:#764ba2;stop-opacity:1" />
    </linearGradient>
    <linearGradient id="grad2" x1="0%" y1="0%" x2="100%" y2="0%">
      <stop offset="0%" style="stop-color:#f093fb;stop-opacity:0.8" />
      <stop offset="100%" style="stop-color:#f5576c;stop-opacity:0.8" />
    </linearGradient>
    <linearGradient id="grad3" x1="0%" y1="0%" x2="100%" y2="0%">
      <stop offset="0%" style="stop-color:#a8edea;stop-opacity:0.6" />
      <stop offset="100%" style="stop-color:#fed6e3;stop-opacity:0.6" />
    </linearGradient>
  </defs>
  
  <!-- Background -->
  <rect width="800" height="400" fill="url(#grad1)"/>
  
  <!-- Large neural network -->
  <circle cx="200" cy="100" r="15" fill="white" opacity="0.9"/>
  <circle cx="350" cy="80" r="15" fill="white" opacity="0.9"/>
  <circle cx="500" cy="100" r="15" fill="white" opacity="0.9"/>
  <circle cx="650" cy="80" r="15" fill="white" opacity="0.9"/>
  
  <circle cx="200" cy="180" r="15" fill="white" opacity="0.9"/>
  <circle cx="350" cy="160" r="15" fill="white" opacity="0.9"/>
  <circle cx="500" cy="180" r="15" fill="white" opacity="0.9"/>
  <circle cx="650" cy="160" r="15" fill="white" opacity="0.9"/>
  
  <circle cx="200" cy="260" r="15" fill="white" opacity="0.9"/>
  <circle cx="350" cy="240" r="15" fill="white" opacity="0.9"/>
  <circle cx="500" cy="260" r="15" fill="white" opacity="0.9"/>
  <circle cx="650" cy="240" r="15" fill="white" opacity="0.9"/>
  
  <!-- Connection lines -->
  <line x1="215" y1="100" x2="335" y2="80" stroke="white" stroke-width="3" opacity="0.6"/>
  <line x1="365" y1="80" x2="485" y2="100" stroke="white" stroke-width="3" opacity="0.6"/>
  <line x1="515" y1="100" x2="635" y2="80" stroke="white" stroke-width="3" opacity="0.6"/>
  
  <line x1="215" y1="180" x2="335" y2="160" stroke="white" stroke-width="3" opacity="0.6"/>
  <line x1="365" y1="160" x2="485" y2="180" stroke="white" stroke-width="3" opacity="0.6"/>
  <line x1="515" y1="180" x2="635" y2="160" stroke="white" stroke-width="3" opacity="0.6"/>
  
  <line x1="215" y1="260" x2="335" y2="240" stroke="white" stroke-width="3" opacity="0.6"/>
  <line x1="365" y1="240" x2="485" y2="260" stroke="white" stroke-width="3" opacity="0.6"/>
  <line x1="515" y1="260" x2="635" y2="240" stroke="white" stroke-width="3" opacity="0.6"/>
  
  <line x1="200" y1="115" x2="200" y2="165" stroke="white" stroke-width="3" opacity="0.6"/>
  <line x1="350" y1="95" x2="350" y2="145" stroke="white" stroke-width="3" opacity="0.6"/>
  <line x1="500" y1="115" x2="500" y2="165" stroke="white" stroke-width="3" opacity="0.6"/>
  <line x1="650" y1="95" x2="650" y2="145" stroke="white" stroke-width="3" opacity="0.6"/>
  
  <line x1="200" y1="195" x2="200" y2="245" stroke="white" stroke-width="3" opacity="0.6"/>
  <line x1="350" y1="175" x2="350" y2="225" stroke="white" stroke-width="3" opacity="0.6"/>
  <line x1="500" y1="195" x2="500" y2="245" stroke="white" stroke-width="3" opacity="0.6"/>
  <line x1="650" y1="175" x2="650" y2="225" stroke="white" stroke-width="3" opacity="0.6"/>
  
  <!-- Floating AI elements -->
  <circle cx="100" cy="80" r="20" fill="url(#grad2)" opacity="0.7"/>
  <circle cx="700" cy="120" r="18" fill="url(#grad2)" opacity="0.6"/>
  <circle cx="650" cy="320" r="25" fill="url(#grad2)" opacity="0.5"/>
  <circle cx="150" cy="350" r="22" fill="url(#grad2)" opacity="0.7"/>
  
  <!-- Data flow lines -->
  <path d="M 50 200 Q 150 150 250 200 Q 350 250 450 200 Q 550 150 650 200 Q 750 250 800 200" stroke="url(#grad3)" stroke-width="4" fill="none" opacity="0.5"/>
  <path d="M 50 250 Q 150 200 250 250 Q 350 300 450 250 Q 550 200 650 250 Q 750 300 800 250" stroke="url(#grad3)" stroke-width="3" fill="none" opacity="0.4"/>
  
  <!-- Overlay gradient for text readability -->
  <rect x="0" y="300" width="800" height="100" fill="url(#grad1)" opacity="0.8"/>
  
  <!-- Text -->
  <text x="400" y="330" font-family="Arial, sans-serif" font-size="32" font-weight="bold" text-anchor="middle" fill="white">The Future of Generative AI</text>
  <text x="400" y="355" font-family="Arial, sans-serif" font-size="18" text-anchor="middle" fill="white" opacity="0.9">How AI Technology is Reshaping Creative Industries</text>
  <text x="400" y="375" font-family="Arial, sans-serif" font-size="14" text-anchor="middle" fill="white" opacity="0.7">Artificial Intelligence • Machine Learning • Technology Innovation</text>
</svg> 