<svg width="500" height="300" xmlns="http://www.w3.org/2000/svg">
  <defs>
    <linearGradient id="grad1" x1="0%" y1="0%" x2="100%" y2="100%">
      <stop offset="0%" style="stop-color:#667eea;stop-opacity:1" />
      <stop offset="100%" style="stop-color:#764ba2;stop-opacity:1" />
    </linearGradient>
    <linearGradient id="grad2" x1="0%" y1="0%" x2="100%" y2="0%">
      <stop offset="0%" style="stop-color:#f093fb;stop-opacity:0.8" />
      <stop offset="100%" style="stop-color:#f5576c;stop-opacity:0.8" />
    </linearGradient>
    <linearGradient id="grad3" x1="0%" y1="0%" x2="100%" y2="0%">
      <stop offset="0%" style="stop-color:#a8edea;stop-opacity:0.6" />
      <stop offset="100%" style="stop-color:#fed6e3;stop-opacity:0.6" />
    </linearGradient>
  </defs>
  
  <!-- Background -->
  <rect width="500" height="300" fill="url(#grad1)"/>
  
  <!-- Large neural network -->
  <circle cx="150" cy="80" r="12" fill="white" opacity="0.9"/>
  <circle cx="250" cy="60" r="12" fill="white" opacity="0.9"/>
  <circle cx="350" cy="80" r="12" fill="white" opacity="0.9"/>
  <circle cx="150" cy="140" r="12" fill="white" opacity="0.9"/>
  <circle cx="250" cy="120" r="12" fill="white" opacity="0.9"/>
  <circle cx="350" cy="140" r="12" fill="white" opacity="0.9"/>
  <circle cx="150" cy="200" r="12" fill="white" opacity="0.9"/>
  <circle cx="250" cy="180" r="12" fill="white" opacity="0.9"/>
  <circle cx="350" cy="200" r="12" fill="white" opacity="0.9"/>
  
  <!-- Connection lines -->
  <line x1="162" y1="80" x2="238" y2="60" stroke="white" stroke-width="2" opacity="0.6"/>
  <line x1="262" y1="60" x2="338" y2="80" stroke="white" stroke-width="2" opacity="0.6"/>
  <line x1="162" y1="140" x2="238" y2="120" stroke="white" stroke-width="2" opacity="0.6"/>
  <line x1="262" y1="120" x2="338" y2="140" stroke="white" stroke-width="2" opacity="0.6"/>
  <line x1="162" y1="200" x2="238" y2="180" stroke="white" stroke-width="2" opacity="0.6"/>
  <line x1="262" y1="180" x2="338" y2="200" stroke="white" stroke-width="2" opacity="0.6"/>
  <line x1="150" y1="92" x2="150" y2="128" stroke="white" stroke-width="2" opacity="0.6"/>
  <line x1="250" y1="72" x2="250" y2="108" stroke="white" stroke-width="2" opacity="0.6"/>
  <line x1="350" y1="92" x2="350" y2="128" stroke="white" stroke-width="2" opacity="0.6"/>
  <line x1="150" y1="152" x2="150" y2="188" stroke="white" stroke-width="2" opacity="0.6"/>
  <line x1="250" y1="132" x2="250" y2="168" stroke="white" stroke-width="2" opacity="0.6"/>
  <line x1="350" y1="152" x2="350" y2="188" stroke="white" stroke-width="2" opacity="0.6"/>
  
  <!-- Floating AI elements -->
  <circle cx="80" cy="60" r="15" fill="url(#grad2)" opacity="0.7"/>
  <circle cx="420" cy="100" r="12" fill="url(#grad2)" opacity="0.6"/>
  <circle cx="380" cy="220" r="18" fill="url(#grad2)" opacity="0.5"/>
  <circle cx="120" cy="240" r="14" fill="url(#grad2)" opacity="0.7"/>
  
  <!-- Data flow lines -->
  <path d="M 50 150 Q 100 120 150 150 Q 200 180 250 150 Q 300 120 350 150 Q 400 180 450 150" stroke="url(#grad3)" stroke-width="3" fill="none" opacity="0.5"/>
  <path d="M 50 180 Q 100 150 150 180 Q 200 210 250 180 Q 300 150 350 180 Q 400 210 450 180" stroke="url(#grad3)" stroke-width="2" fill="none" opacity="0.4"/>
  
  <!-- Featured badge -->
  <rect x="20" y="20" width="120" height="30" rx="15" fill="url(#grad2)" opacity="0.9"/>
  <text x="80" y="40" font-family="Arial, sans-serif" font-size="12" font-weight="bold" text-anchor="middle" fill="white">FEATURED</text>
  
  <!-- Text -->
  <text x="250" y="250" font-family="Arial, sans-serif" font-size="28" font-weight="bold" text-anchor="middle" fill="white">Generative AI Technology</text>
  <text x="250" y="270" font-family="Arial, sans-serif" font-size="16" text-anchor="middle" fill="white" opacity="0.8">The Future of Creative Industries</text>
  <text x="250" y="285" font-family="Arial, sans-serif" font-size="14" text-anchor="middle" fill="white" opacity="0.7">Artificial Intelligence • Machine Learning</text>
</svg> 