<svg width="400" height="200" xmlns="http://www.w3.org/2000/svg">
  <defs>
    <linearGradient id="grad1" x1="0%" y1="0%" x2="100%" y2="100%">
      <stop offset="0%" style="stop-color:#a8caba;stop-opacity:1" />
      <stop offset="100%" style="stop-color:#5d4e75;stop-opacity:1" />
    </linearGradient>
    <linearGradient id="grad2" x1="0%" y1="0%" x2="100%" y2="0%">
      <stop offset="0%" style="stop-color:#ffecd2;stop-opacity:0.8" />
      <stop offset="100%" style="stop-color:#fcb69f;stop-opacity:0.8" />
    </linearGradient>
  </defs>
  
  <!-- Background -->
  <rect width="400" height="200" fill="url(#grad1)"/>
  
  <!-- Paintbrush -->
  <path d="M 80 60 L 120 40 L 130 50 L 90 70 Z" fill="url(#grad2)" opacity="0.9"/>
  <rect x="85" y="65" width="35" height="4" fill="white" opacity="0.9"/>
  <circle cx="102" cy="67" r="8" fill="white" opacity="0.9"/>
  
  <!-- Palette -->
  <circle cx="200" cy="80" r="25" fill="white" opacity="0.9"/>
  <circle cx="190" cy="70" r="6" fill="#ff6b6b" opacity="0.8"/>
  <circle cx="210" cy="70" r="6" fill="#4ecdc4" opacity="0.8"/>
  <circle cx="190" cy="90" r="6" fill="#45b7d1" opacity="0.8"/>
  <circle cx="210" cy="90" r="6" fill="#96ceb4" opacity="0.8"/>
  <circle cx="200" cy="80" r="6" fill="#feca57" opacity="0.8"/>
  
  <!-- Canvas -->
  <rect x="280" y="50" width="80" height="60" fill="white" opacity="0.9"/>
  <rect x="285" y="55" width="70" height="50" fill="url(#grad2)" opacity="0.3"/>
  
  <!-- Abstract art elements -->
  <circle cx="290" cy="70" r="8" fill="#ff6b6b" opacity="0.7"/>
  <circle cx="320" cy="85" r="6" fill="#4ecdc4" opacity="0.7"/>
  <circle cx="340" cy="65" r="5" fill="#45b7d1" opacity="0.7"/>
  <circle cx="310" cy="100" r="7" fill="#96ceb4" opacity="0.7"/>
  <circle cx="330" cy="105" r="4" fill="#feca57" opacity="0.7"/>
  
  <!-- Creative flow lines -->
  <path d="M 60 120 Q 100 100 140 120 Q 180 140 220 120 Q 260 100 300 120 Q 340 140 380 120" stroke="url(#grad2)" stroke-width="3" fill="none" opacity="0.6"/>
  <path d="M 60 140 Q 100 120 140 140 Q 180 160 220 140 Q 260 120 300 140 Q 340 160 380 140" stroke="url(#grad2)" stroke-width="2" fill="none" opacity="0.4"/>
  
  <!-- Floating elements -->
  <circle cx="100" cy="160" r="4" fill="url(#grad2)" opacity="0.8"/>
  <circle cx="150" cy="155" r="3" fill="url(#grad2)" opacity="0.6"/>
  <circle cx="200" cy="165" r="5" fill="url(#grad2)" opacity="0.7"/>
  <circle cx="250" cy="160" r="3" fill="url(#grad2)" opacity="0.6"/>
  <circle cx="300" cy="155" r="4" fill="url(#grad2)" opacity="0.8"/>
  <circle cx="350" cy="165" r="3" fill="url(#grad2)" opacity="0.6"/>
  
  <!-- Text -->
  <text x="200" y="185" font-family="Arial, sans-serif" font-size="18" font-weight="bold" text-anchor="middle" fill="white">Generative AI</text>
  <text x="200" y="200" font-family="Arial, sans-serif" font-size="12" text-anchor="middle" fill="white" opacity="0.8">Creative Innovation</text>
</svg> 